# xmcd
#
# Track frame offsets:
#	150
#	11087
#	31652
#	45335
#	65307
#	76987
#	94362
#	113012
#	126745
#	146685
#	173152
#	186990
#	201895
#	216615
#	232805
#	248377
#	261455
#	277580
#	293065
#	307167
#	332692
#
# Disc length: 4617 seconds
# Revision: 0
# Processed by: cddbd v1.5.2PL0 Copyright (c) Steve Scherf et al.
# Submitted via: dBpowerAMP V12.0
#
DISCID=31120715
DTITLE=Various Artist - Greatest Hits of the Millennium: 70's volume 2
DYEAR=1999
DGENRE=Pop
TTITLE0=Sammy Davis Jr. - Baretta's Theme
TTITLE1=Peter Frampton - Show Me the Way
TTITLE2=Brotherhood of Man - Save Your Kisses for Me
TTITLE3=The Manhattans - Kiss and Say Goodbye
TTITLE4=Sutherland Brothers and Quiver - The Arms of Mary
TTITLE5=Nazareth - Love Hurts
TTITLE6=Don Mercedes - Rocky
TTITLE7=Jesse Green - Nice and Slow
TTITLE8=Elton John and Kiki Dee - Don't Go Breakin' My Heart
TTITLE9=John Miles - Music
TTITLE10=Tina Charles - I Love to Love
TTITLE11=Gérard Lenorman - La Ballade des Gens Heureux
TTITLE12=Johnny Wakelin - In Zaire
TTITLE13=Marianne Rosenberg - Ich Bin Wie du
TTITLE14=Full House - Standing on the Inside
TTITLE15=Bay City Rollers - Saturday Night
TTITLE16=Jimmy James and the Vagabonds - Now Is the Time
TTITLE17=The Real Thing - You to Me Are Everything
TTITLE18=Lee Towers - You Never Walk Alone
TTITLE19=The Walker Brothers - No Regrets
TTITLE20=John Denver - Annie's Song
EXTD=
EXTT0=
EXTT1=
EXTT2=
EXTT3=
EXTT4=
EXTT5=
EXTT6=
EXTT7=
EXTT8=
EXTT9=
EXTT10=
EXTT11=
EXTT12=
EXTT13=
EXTT14=
EXTT15=
EXTT16=
EXTT17=
EXTT18=
EXTT19=
EXTT20=
PLAYORDER=
